<svg contentscripttype="text/ecmascript" viewBox="-1.667 0 1412 2048" xml:space="preserve" xmlns="http://www.w3.org/2000/svg"><path d="M597 795c-6.667 12-92.333 164-257 456-18 30.667-39.667 46-65 46H36c-14 0-24.333-5.667-31-17s-6.667-23.333 0-36l253-448c.667 0 .667-.333 0-1L97 516c-8-14.667-8.333-27-1-37 6-10 16.667-15 32-15h239c26.667 0 48.667 15 66 45l164 286zm806-642c7.333 10.667 7.333 23 0 37l-528 934v1l336 615c7.333 13.333 7.667 25.667 1 37-6.667 10-17.333 15-32 15H941c-28 0-50-15-66-45l-339-622c12-21.333 189-335.333 531-942 16.667-30 38-45 64-45h241c14.667 0 25 5 31 15z" fill="#ffffff" class="fill-000000"></path></svg>